<svg width="22" height="22" viewBox="0 0 22 22" fill="none" xmlns="http://www.w3.org/2000/svg">
<path d="M21.0721 6.81777L11.4999 12.2719C11.4404 12.3106 11.3707 12.3312 11.2995 12.3312C11.2283 12.3312 11.1587 12.3106 11.0991 12.2719C11.0317 12.2406 10.9774 12.1869 10.9459 12.1201C10.9284 12.055 10.9284 11.9866 10.9459 11.9215V0.989908C10.9284 0.924862 10.9284 0.856409 10.9459 0.791363C10.9816 0.730447 11.035 0.681606 11.0991 0.651214C11.1587 0.612528 11.2283 0.591919 11.2995 0.591919C11.3707 0.591919 11.4404 0.612528 11.4999 0.651214L21.0839 6.12871C21.1422 6.16283 21.1909 6.21104 21.2253 6.26886C21.2755 6.31235 21.3123 6.36904 21.3314 6.43236C21.3489 6.49741 21.3489 6.56586 21.3314 6.63091C21.2645 6.7162 21.1746 6.78098 21.0721 6.81777Z" fill="#29B6F6"/>
<path d="M15.4146 16.1155L5.77575 21.8744C5.71587 21.9147 5.64582 21.9361 5.5742 21.9361C5.50259 21.9361 5.43254 21.9147 5.37265 21.8744C5.31053 21.8393 5.25764 21.7893 5.21852 21.7286C5.20092 21.661 5.20092 21.5897 5.21852 21.5221V10.0529C5.20196 9.98513 5.20196 9.91419 5.21852 9.84639C5.26038 9.79458 5.31305 9.75306 5.37265 9.72489C5.43254 9.68465 5.50259 9.66321 5.5742 9.66321C5.64582 9.66321 5.71587 9.68465 5.77575 9.72489L15.4146 15.423C15.4765 15.4598 15.5261 15.5149 15.5569 15.581C15.5962 15.6423 15.6171 15.7141 15.6171 15.7875C15.6171 15.8609 15.5962 15.9327 15.5569 15.994C15.5193 16.0453 15.4706 16.0869 15.4146 16.1155Z" fill="#FFB300"/>
<path d="M10.2099 6.81783L0.558991 12.2728C0.498152 12.3095 0.42852 12.3296 0.357189 12.3312C0.285858 12.3296 0.216225 12.3095 0.155387 12.2728C0.0934709 12.2374 0.0438289 12.1845 0.0129382 12.1209C-0.00414997 12.0558 -0.00414997 11.9875 0.0129382 11.9224V0.989069C-0.00414997 0.923945 -0.00414997 0.855618 0.0129382 0.790494C0.0476171 0.732673 0.0966266 0.684448 0.155387 0.650323C0.216225 0.613645 0.285858 0.593493 0.357189 0.591919C0.42852 0.593493 0.498152 0.613645 0.558991 0.650323L10.2099 6.12866C10.2686 6.16278 10.3177 6.21101 10.3523 6.26883C10.3867 6.31708 10.4072 6.37358 10.4117 6.43236C10.4143 6.50678 10.3936 6.5802 10.3523 6.64261C10.323 6.71328 10.2735 6.77411 10.2099 6.81783Z" fill="#FF5252"/>
</svg>
