<svg
  width="67"
  height="23"
  viewBox="0 0 67 23"
  fill="none"
  xmlns="http://www.w3.org/2000/svg"
>
<path
    d="M7.18439 2.80601C6.23102 2.76332 5.56224 2.91985 5.17804 3.27559C4.79385 3.61709 4.60175 4.20761 4.60175 5.04715V5.23925H7.18439V7.33097H4.60175V16.9999H2.14717V7.33097H0.546359V5.23925H2.14717V4.85505C2.14717 3.41788 2.56694 2.34356 3.40648 1.63208C4.24601 0.906384 5.50532 0.586221 7.18439 0.671597V2.80601ZM8.79871 1.82418C8.79871 1.41153 8.941 1.07002 9.22559 0.799662C9.51018 0.529303 9.88726 0.394123 10.3568 0.394123C10.8264 0.394123 11.2035 0.529303 11.4881 0.799662C11.7869 1.07002 11.9363 1.41153 11.9363 1.82418C11.9363 2.23684 11.7869 2.57123 11.4881 2.82736C11.2035 3.08349 10.8264 3.21155 10.3568 3.21155C9.88726 3.21155 9.51018 3.08349 9.22559 2.82736C8.941 2.57123 8.79871 2.23684 8.79871 1.82418ZM11.5735 5.23925V16.9999H9.14022V5.23925H11.5735ZM19.235 5.08984C20.3022 5.08984 21.2129 5.35308 21.9671 5.87957C22.7212 6.40606 23.2477 7.1033 23.5465 7.9713V1.2052H26.0011V16.9999H23.5465V14.2678C23.2477 15.1358 22.7212 15.8331 21.9671 16.3596C21.2129 16.886 20.3022 17.1493 19.235 17.1493C18.2105 17.1493 17.2927 16.9074 16.4816 16.4236C15.6848 15.9398 15.0587 15.2425 14.6033 14.3319C14.148 13.4212 13.9203 12.3469 13.9203 11.1089C13.9203 9.88516 14.148 8.81795 14.6033 7.90727C15.0587 6.99658 15.6848 6.29934 16.4816 5.81554C17.2927 5.33174 18.2105 5.08984 19.235 5.08984ZM19.982 7.22425C18.9006 7.22425 18.0326 7.57288 17.3781 8.27012C16.7377 8.95313 16.4176 9.89939 16.4176 11.1089C16.4176 12.3184 16.7377 13.2718 17.3781 13.969C18.0326 14.652 18.9006 14.9935 19.982 14.9935C20.6651 14.9935 21.2769 14.837 21.8176 14.524C22.3584 14.1967 22.7852 13.7413 23.0983 13.1579C23.4113 12.5745 23.5679 11.8915 23.5679 11.1089C23.5679 10.3405 23.4113 9.6646 23.0983 9.0812C22.7852 8.48356 22.3584 8.02822 21.8176 7.71517C21.2769 7.38789 20.6651 7.22425 19.982 7.22425ZM28.5796 1.82418C28.5796 1.41153 28.7219 1.07002 29.0065 0.799662C29.291 0.529303 29.6681 0.394123 30.1377 0.394123C30.6073 0.394123 30.9843 0.529303 31.2689 0.799662C31.5678 1.07002 31.7172 1.41153 31.7172 1.82418C31.7172 2.23684 31.5678 2.57123 31.2689 2.82736C30.9843 3.08349 30.6073 3.21155 30.1377 3.21155C29.6681 3.21155 29.291 3.08349 29.0065 2.82736C28.7219 2.57123 28.5796 2.23684 28.5796 1.82418ZM31.3543 5.23925V16.9999H28.9211V5.23925H31.3543ZM38.1621 5.08984C39.5424 5.08984 40.6451 5.44557 41.4704 6.15705C42.31 6.85429 42.8222 7.79343 43.0072 8.97447H40.7021C40.6024 8.33415 40.325 7.82189 39.8696 7.4377C39.4285 7.03927 38.838 6.84006 38.0981 6.84006C37.4862 6.84006 37.0095 6.98947 36.668 7.28829C36.3407 7.57288 36.1771 7.96418 36.1771 8.46222C36.1771 8.83218 36.298 9.131 36.5399 9.35867C36.7818 9.58634 37.0807 9.76421 37.4364 9.89227C37.8064 10.0203 38.3257 10.1626 38.9945 10.3192C39.8767 10.5184 40.5882 10.7247 41.1289 10.9381C41.6839 11.1516 42.1535 11.4931 42.5377 11.9627C42.9361 12.418 43.1353 13.0441 43.1353 13.8409C43.1353 14.8228 42.7582 15.6196 42.004 16.2315C41.2641 16.8434 40.2609 17.1493 38.9945 17.1493C37.5289 17.1493 36.3407 16.8078 35.43 16.1248C34.5336 15.4418 33.9929 14.4884 33.8079 13.2647H36.1771C36.2482 13.905 36.5328 14.4243 37.0309 14.8228C37.5289 15.2212 38.1834 15.4204 38.9945 15.4204C39.5779 15.4204 40.0333 15.271 40.3605 14.9722C40.7021 14.6591 40.8728 14.2678 40.8728 13.7983C40.8728 13.3856 40.7447 13.0583 40.4886 12.8164C40.2325 12.5745 39.9123 12.3895 39.5281 12.2615C39.1439 12.1192 38.6174 11.9769 37.9487 11.8346C37.0949 11.6354 36.3977 11.4362 35.8569 11.237C35.3304 11.0377 34.8751 10.7176 34.4909 10.2765C34.1209 9.82113 33.936 9.20926 33.936 8.44087C33.936 7.44481 34.3059 6.64085 35.0459 6.02898C35.8 5.40289 36.8388 5.08984 38.1621 5.08984ZM46.9627 5.23925L50.4845 13.8836L53.7502 5.23925H56.4609L49.3533 22.592H46.6426L49.1825 16.7224L44.2307 5.23925H46.9627ZM61.9241 5.08984C63.3044 5.08984 64.4072 5.44557 65.2325 6.15705C66.072 6.85429 66.5843 7.79343 66.7693 8.97447H64.4641C64.3645 8.33415 64.087 7.82189 63.6317 7.4377C63.1906 7.03927 62.6 6.84006 61.8601 6.84006C61.2482 6.84006 60.7716 6.98947 60.4301 7.28829C60.1028 7.57288 59.9391 7.96418 59.9391 8.46222C59.9391 8.83218 60.0601 9.131 60.302 9.35867C60.5439 9.58634 60.8427 9.76421 61.1984 9.89227C61.5684 10.0203 62.0878 10.1626 62.7566 10.3192C63.6388 10.5184 64.3503 10.7247 64.891 10.9381C65.4459 11.1516 65.9155 11.4931 66.2997 11.9627C66.6981 12.418 66.8973 13.0441 66.8973 13.8409C66.8973 14.8228 66.5203 15.6196 65.7661 16.2315C65.0262 16.8434 64.023 17.1493 62.7566 17.1493C61.2909 17.1493 60.1028 16.8078 59.1921 16.1248C58.2956 15.4418 57.7549 14.4884 57.5699 13.2647H59.9391C60.0103 13.905 60.2949 14.4243 60.7929 14.8228C61.2909 15.2212 61.9455 15.4204 62.7566 15.4204C63.34 15.4204 63.7953 15.271 64.1226 14.9722C64.4641 14.6591 64.6349 14.2678 64.6349 13.7983C64.6349 13.3856 64.5068 13.0583 64.2507 12.8164C63.9945 12.5745 63.6744 12.3895 63.2902 12.2615C62.906 12.1192 62.3795 11.9769 61.7107 11.8346C60.8569 11.6354 60.1597 11.4362 59.619 11.237C59.0925 11.0377 58.6371 10.7176 58.253 10.2765C57.883 9.82113 57.698 9.20926 57.698 8.44087C57.698 7.44481 58.068 6.64085 58.8079 6.02898C59.5621 5.40289 60.6008 5.08984 61.9241 5.08984Z"
    fill="white"
  />
</svg>
