<svg width="21" height="21" viewBox="0 0 21 21" fill="none" xmlns="http://www.w3.org/2000/svg">
<path d="M16.4937 8.39648C16.4937 8.39648 16.0412 14.009 15.7787 16.3731C15.6537 17.5023 14.9562 18.164 13.8137 18.1848C11.6395 18.224 9.46285 18.2265 7.28951 18.1807C6.19035 18.1582 5.50451 17.4882 5.38201 16.379C5.11785 13.994 4.66785 8.39648 4.66785 8.39648" stroke="#F7324C" stroke-width="1.5" stroke-linecap="round" stroke-linejoin="round"/>
<path d="M17.6464 5.70671H3.51477" stroke="#F7324C" stroke-width="1.5" stroke-linecap="round" stroke-linejoin="round"/>
<path d="M14.9234 5.70633C14.2692 5.70633 13.7059 5.24383 13.5775 4.60299L13.375 3.58966C13.25 3.12216 12.8267 2.79883 12.3442 2.79883H8.81672C8.33422 2.79883 7.91088 3.12216 7.78588 3.58966L7.58338 4.60299C7.45505 5.24383 6.89172 5.70633 6.23755 5.70633" stroke="#F7324C" stroke-width="1.5" stroke-linecap="round" stroke-linejoin="round"/>
</svg>
