<svg width="16" height="16" viewBox="0 0 16 16" fill="none" xmlns="http://www.w3.org/2000/svg">
<path d="M7.99996 7.10222C9.16834 7.10222 10.1155 6.16699 10.1155 5.01333C10.1155 3.85967 9.16834 2.92444 7.99996 2.92444C6.83157 2.92444 5.8844 3.85967 5.8844 5.01333C5.8844 6.16699 6.83157 7.10222 7.99996 7.10222Z" fill="#60626E"/>
<path d="M4.79115 5.2222H5.00448V5.03109C5.00578 4.47536 5.16256 3.93108 5.4571 3.45981C5.75164 2.98855 6.17218 2.60911 6.67115 2.36443C6.52343 2.02423 6.28633 1.7304 5.98503 1.51413C5.68373 1.29786 5.32948 1.16724 4.9599 1.13614C4.59033 1.10504 4.21923 1.17461 3.88602 1.33748C3.55281 1.50034 3.26994 1.75042 3.06744 2.06114C2.86494 2.37186 2.75038 2.73163 2.73593 3.10223C2.72148 3.47283 2.80767 3.84042 2.98536 4.16597C3.16304 4.49151 3.42558 4.76286 3.7451 4.95118C4.06461 5.1395 4.42916 5.23776 4.80004 5.23554L4.79115 5.2222ZM11.0045 5.01331V5.20443H11.2178C11.5837 5.20075 11.9419 5.0985 12.2546 4.90842C12.5674 4.71835 12.8231 4.44748 12.9948 4.12434C13.1666 3.80119 13.248 3.43772 13.2306 3.07218C13.2132 2.70664 13.0976 2.35255 12.8959 2.04719C12.6943 1.74182 12.414 1.49647 12.0846 1.33696C11.7553 1.17745 11.389 1.10968 11.0244 1.14078C10.6597 1.17189 10.3102 1.30072 10.0127 1.51371C9.71507 1.7267 9.48041 2.01598 9.33337 2.35109C9.83249 2.59482 10.2535 2.9733 10.5488 3.44375C10.8441 3.9142 11.0019 4.45787 11.0045 5.01331ZM9.9067 7.31109C10.7904 7.486 11.6448 7.78527 12.4445 8.19998C12.5571 8.26187 12.6592 8.34139 12.7467 8.43554H15.1111V6.91554C15.1116 6.85724 15.0961 6.79993 15.0663 6.7498C15.0365 6.69967 14.9936 6.65862 14.9423 6.63109C13.7903 6.02857 12.5089 5.71584 11.2089 5.71998H10.9156C10.7616 6.34608 10.4073 6.90476 9.9067 7.31109ZM2.90226 9.29776C2.90145 9.07392 2.9619 8.85413 3.07706 8.66219C3.19222 8.47026 3.35771 8.31349 3.55559 8.20887C4.35527 7.79416 5.2097 7.49489 6.09337 7.31998C5.59518 6.9171 5.24115 6.36346 5.08448 5.7422H4.79115C3.49116 5.73806 2.20975 6.05079 1.05781 6.65331C1.00642 6.68084 0.963527 6.72189 0.933763 6.77202C0.903998 6.82215 0.888494 6.87946 0.888925 6.93776V9.77776H2.90226V9.29776ZM9.53781 11.8622H12.1867V12.4844H9.53781V11.8622Z" fill="#60626E"/>
<path d="M14.5823 9.44884H11.5289V9.0044C11.5289 8.88652 11.4821 8.77348 11.3987 8.69013C11.3154 8.60678 11.2024 8.55995 11.0845 8.55995C10.9666 8.55995 10.8536 8.60678 10.7702 8.69013C10.6869 8.77348 10.64 8.88652 10.64 9.0044V9.44884H9.77781V8.19106C9.19307 8.06827 8.59752 8.00425 8.00004 7.99995C6.59726 7.99411 5.21453 8.33293 3.97337 8.98662C3.91809 9.0153 3.87181 9.0587 3.83965 9.11204C3.80749 9.16538 3.79071 9.22656 3.79115 9.28884V11.7822H6.95115V14.4888C6.95115 14.6067 6.99797 14.7198 7.08132 14.8031C7.16467 14.8865 7.27772 14.9333 7.39559 14.9333H14.5823C14.7001 14.9333 14.8132 14.8865 14.8965 14.8031C14.9799 14.7198 15.0267 14.6067 15.0267 14.4888V9.89329C15.0267 9.77541 14.9799 9.66237 14.8965 9.57902C14.8132 9.49567 14.7001 9.44884 14.5823 9.44884ZM14.1378 14.0533H7.84003V10.3377H10.64V10.7422C10.64 10.86 10.6869 10.9731 10.7702 11.0564C10.8536 11.1398 10.9666 11.1866 11.0845 11.1866C11.2024 11.1866 11.3154 11.1398 11.3987 11.0564C11.4821 10.9731 11.5289 10.86 11.5289 10.7422V10.3377H14.1378V14.0533Z" fill="#60626E"/>
</svg>
